<?xml version="1.0" encoding="UTF-8"?>
<svg version="1.1" xmlns="http://www.w3.org/2000/svg" width="225" height="225">
<path d="M0 0 C74.25 0 148.5 0 225 0 C225 74.25 225 148.5 225 225 C150.75 225 76.5 225 0 225 C0 150.75 0 76.5 0 0 Z " fill="#FEECA8" transform="translate(0,0)"/>
<path d="M0 0 C74.25 0 148.5 0 225 0 C225 74.25 225 148.5 225 225 C150.75 225 76.5 225 0 225 C0 150.75 0 76.5 0 0 Z M41 27 C40.18402344 27.68578125 39.36804687 28.3715625 38.52734375 29.078125 C17.95053297 46.76082483 3.38403101 73.78512801 1.16796875 101.046875 C-0.53736533 131.02902772 6.78294378 161.08733629 27 184 C27.68707031 184.81855469 28.37414062 185.63710937 29.08203125 186.48046875 C41.92948951 201.41129862 57.66492678 211.16503188 76 218 C76.70640625 218.28359375 77.4128125 218.5671875 78.140625 218.859375 C103.10590648 228.19753372 133.04911672 225.54988768 157.11767578 214.86816406 C166.97412449 210.32218072 175.81387158 205.22305449 184 198 C184.81855469 197.31292969 185.63710937 196.62585938 186.48046875 195.91796875 C208.79491656 176.71716482 220.63278725 149.92596099 224 121 C225.66772044 93.46459216 218.29621689 64.52128775 200.015625 43.25390625 C199.01789063 42.13822266 199.01789063 42.13822266 198 41 C197.31421875 40.18402344 196.6284375 39.36804687 195.921875 38.52734375 C176.73673259 16.20218703 149.91930442 4.36643788 121 1 C92.16651685 -0.74634019 62.80989552 7.49583 41 27 Z " fill="#FEFDFD" transform="translate(0,0)"/>
<path d="M0 0 C1.57445973 1.34024258 3.13709829 2.69449849 4.6875 4.0625 C5.50605469 4.74957031 6.32460937 5.43664062 7.16796875 6.14453125 C22.09879862 18.99198951 31.85253188 34.72742678 38.6875 53.0625 C39.11289062 54.12210938 39.11289062 54.12210938 39.546875 55.203125 C48.88503372 80.16840648 46.23738768 110.11161672 35.55566406 134.18017578 C31.00968072 144.03662449 25.91055449 152.87637158 18.6875 161.0625 C18.00042969 161.88105469 17.31335938 162.69960937 16.60546875 163.54296875 C-2.59533518 185.85741656 -29.38653901 197.69528725 -58.3125 201.0625 C-85.84790784 202.73022044 -114.79121225 195.35871689 -136.05859375 177.078125 C-136.80238281 176.41296875 -137.54617187 175.7478125 -138.3125 175.0625 C-139.12847656 174.37671875 -139.94445312 173.6909375 -140.78515625 172.984375 C-163.11764894 153.79292842 -174.9327104 126.98569944 -178.3125 98.0625 C-179.70948019 65.24970959 -168.81156041 36.23421154 -147.2890625 11.76171875 C-109.68127686 -27.82959988 -43.35228989 -34.01903559 0 0 Z M-87.3125 -8.9375 C-88.46878906 -8.69257813 -89.62507813 -8.44765625 -90.81640625 -8.1953125 C-115.54302933 -2.36818339 -137.31289678 13.4113835 -151.21875 34.59765625 C-165.40118224 57.67718335 -171.09990041 83.60452885 -165.21484375 110.296875 C-158.76017717 137.23323252 -144.01075382 160.1981096 -120.08984375 174.99951172 C-97.53667689 188.48804036 -71.68816763 193.92378702 -45.8203125 187.96484375 C-44.66273438 187.66707031 -43.50515625 187.36929688 -42.3125 187.0625 C-41.23742187 186.79566406 -40.16234375 186.52882812 -39.0546875 186.25390625 C-12.77765493 178.99059872 8.14344238 161.17150359 21.625 137.6875 C32.75644042 116.57614748 36.9817104 92.49090233 31.6875 69.0625 C31.44257813 67.90492187 31.19765625 66.74734375 30.9453125 65.5546875 C25.12126436 40.86690822 8.73473183 18.11800912 -12.66821289 4.46582031 C-35.08159458 -9.18037316 -61.50932124 -14.83730697 -87.3125 -8.9375 Z " fill="#CC0403" transform="translate(179.3125,22.9375)"/>
<path d="M0 0 C5.28 0 10.56 0 16 0 C16 7.26 16 14.52 16 22 C25.24 22 34.48 22 44 22 C44.0679425 30.85830791 44.12291188 39.71644101 44.15543652 48.57495117 C44.17105153 52.68890105 44.19221302 56.80266247 44.22631836 60.91650391 C44.25906131 64.89116249 44.27688429 68.86564048 44.28463173 72.84042358 C44.29014857 74.35219157 44.30092134 75.86395036 44.31719017 77.37564087 C44.49999708 95.07576085 44.49999708 95.07576085 38.9375 101.3125 C31.54780102 105.55764622 25.61960846 106 17 106 C16.67 115.9 16.34 125.8 16 136 C10.72 136 5.44 136 0 136 C0 102.67 0 69.34 0 35 C-3.63 35 -7.26 35 -11 35 C-11 58.1 -11 81.2 -11 105 C-16.28 105 -21.56 105 -27 105 C-27 77.61 -27 50.22 -27 22 C-18.09 22 -9.18 22 0 22 C0 14.74 0 7.48 0 0 Z " fill="#CC0503" transform="translate(136,39)"/>
<path d="M0 0 C4.95 2.31 9.9 4.62 15 7 C13.88625 9.248125 12.7725 11.49625 11.625 13.8125 C11.27775879 14.51608643 10.93051758 15.21967285 10.57275391 15.94458008 C9.17358905 18.75542397 7.74420358 21.38369463 6 24 C12.6 24 19.2 24 26 24 C26 40.17 26 56.34 26 73 C21.05 73 16.1 73 11 73 C11 71.68 11 70.36 11 69 C4.07 69 -2.86 69 -10 69 C-10 72.3 -10 75.6 -10 79 C1.88 79 13.76 79 26 79 C26 96.82 26 114.64 26 133 C21.05 133 16.1 133 11 133 C11 131.02 11 129.04 11 127 C4.07 127 -2.86 127 -10 127 C-10 131.62 -10 136.24 -10 141 C-15.28 141 -20.56 141 -26 141 C-25.67 102.39 -25.34 63.78 -25 24 C-21.7 23.67 -18.4 23.34 -15 23 C-12.13479811 20.76878728 -12.13479811 20.76878728 -10.25 17.625 C-9.52425781 16.54992187 -8.79851562 15.47484375 -8.05078125 14.3671875 C-5.18121133 9.65562698 -2.51916444 4.90914096 0 0 Z " fill="#CB0101" transform="translate(76,34)"/>
<path d="M0 0 C3.96 0 7.92 0 12 0 C12 17.82 12 35.64 12 54 C3 54 3 54 0 53 C0 35.51 0 18.02 0 0 Z " fill="#FEEFAA" transform="translate(152,74)"/>
<path d="M0 0 C6.93 0 13.86 0 21 0 C21 7.26 21 14.52 21 22 C14.07 22 7.14 22 0 22 C0 14.74 0 7.48 0 0 Z " fill="#FDE8A6" transform="translate(66,126)"/>
<path d="M0 0 C0.76401123 0.00749268 1.52802246 0.01498535 2.31518555 0.02270508 C3.76211792 0.0636731 3.76211792 0.0636731 5.23828125 0.10546875 C9.84796875 0.19828125 9.84796875 0.19828125 14.55078125 0.29296875 C14.55078125 6.89296875 14.55078125 13.49296875 14.55078125 20.29296875 C7.62078125 20.29296875 0.69078125 20.29296875 -6.44921875 20.29296875 C-6.67609375 17.54984375 -6.90296875 14.80671875 -7.13671875 11.98046875 C-7.21623779 11.12026123 -7.29575684 10.26005371 -7.37768555 9.3737793 C-7.42578369 8.690979 -7.47388184 8.00817871 -7.5234375 7.3046875 C-7.58104248 6.60819092 -7.63864746 5.91169434 -7.69799805 5.1940918 C-7.44921875 3.29296875 -7.44921875 3.29296875 -6.22265625 1.56054688 C-3.98187729 -0.04106716 -2.73552187 -0.05507762 0 0 Z " fill="#FCE6A4" transform="translate(72.44921875,70.70703125)"/>
</svg>
